<svg width="14" height="14" viewBox="0 0 14 14" fill="none" xmlns="http://www.w3.org/2000/svg">
<path d="M10.3335 2.00001H13.0002C13.177 2.00001 13.3465 2.07024 13.4716 2.19527C13.5966 2.32029 13.6668 2.48986 13.6668 2.66667V13.3333C13.6668 13.5101 13.5966 13.6797 13.4716 13.8047C13.3465 13.9298 13.177 14 13.0002 14H1.00016C0.823352 14 0.653782 13.9298 0.528758 13.8047C0.403734 13.6797 0.333496 13.5101 0.333496 13.3333V2.66667C0.333496 2.48986 0.403734 2.32029 0.528758 2.19527C0.653782 2.07024 0.823352 2.00001 1.00016 2.00001H3.66683V0.666672H5.00016V2.00001H9.00016V0.666672H10.3335V2.00001ZM1.66683 6V12.6667H12.3335V6H1.66683ZM3.00016 7.33334H4.3335V8.66667H3.00016V7.33334ZM6.3335 7.33334H7.66683V8.66667H6.3335V7.33334ZM9.66683 7.33334H11.0002V8.66667H9.66683V7.33334Z" fill="#646464"/>
</svg>
