<svg width="18" height="19" viewBox="0 0 18 19" fill="none" xmlns="http://www.w3.org/2000/svg">
<g clip-path="url(#clip0_390_761)">
<path d="M11.25 2C11.7767 1.99994 12.2942 2.13855 12.7503 2.4019C13.2065 2.66525 13.5852 3.04406 13.8486 3.50022C14.1119 3.95639 14.2505 4.47385 14.2504 5.00057C14.2503 5.52728 14.1115 6.04468 13.848 6.50075L17.25 6.5V8H15.75V15.5C15.75 15.6989 15.671 15.8897 15.5303 16.0303C15.3897 16.171 15.1989 16.25 15 16.25H3C2.80109 16.25 2.61032 16.171 2.46967 16.0303C2.32902 15.8897 2.25 15.6989 2.25 15.5V8H0.75V6.5L4.152 6.50075C3.7799 5.85642 3.66052 5.0968 3.81704 4.36938C3.97356 3.64197 4.39481 2.99868 4.999 2.56442C5.60319 2.13016 6.3472 1.93592 7.08656 2.01941C7.82592 2.10291 8.50787 2.45819 9 3.01625C9.28094 2.69629 9.62705 2.44008 10.0151 2.26481C10.4032 2.08954 10.8242 1.99925 11.25 2ZM8.25 8H3.75V14.75H8.25V8ZM14.25 8H9.75V14.75H14.25V8ZM6.75 3.5C6.36076 3.49826 5.98609 3.64789 5.70514 3.91729C5.42418 4.18668 5.25895 4.55474 5.24434 4.94371C5.22974 5.33268 5.36691 5.71209 5.62687 6.00179C5.88683 6.2915 6.24923 6.4688 6.6375 6.49625L6.75 6.5H8.25V5C8.25002 4.64155 8.12167 4.29494 7.88819 4.02295C7.65472 3.75095 7.33157 3.57156 6.97725 3.51725L6.86175 3.50375L6.75 3.5ZM11.25 3.5C10.8716 3.49988 10.5071 3.64281 10.2296 3.90013C9.9521 4.15745 9.78213 4.51014 9.75375 4.8875L9.75 5V6.5H11.25C11.6284 6.50012 11.9929 6.3572 12.2704 6.09988C12.5479 5.84256 12.7179 5.48987 12.7463 5.1125L12.75 5C12.75 4.60218 12.592 4.22065 12.3107 3.93934C12.0294 3.65804 11.6478 3.5 11.25 3.5Z" fill="white"/>
</g>
<defs>
<clipPath id="clip0_390_761">
<rect width="18" height="18" fill="white" transform="translate(0 0.5)"/>
</clipPath>
</defs>
</svg>
