<svg width="60" height="60" viewBox="0 0 60 60" fill="none" xmlns="http://www.w3.org/2000/svg">
<circle cx="30" cy="30" r="30" fill="#E4571A"/>
<g clip-path="url(#clip0_390_1022)">
<path d="M39.6377 25.0318C41.0431 25.7163 42.6348 25.9189 44.1668 25.6084V41.3334C44.1668 41.7091 44.0176 42.0695 43.7519 42.3352C43.4862 42.6008 43.1259 42.7501 42.7502 42.7501H17.2502C16.8744 42.7501 16.5141 42.6008 16.2484 42.3352C15.9828 42.0695 15.8335 41.7091 15.8335 41.3334V18.6667C15.8335 18.291 15.9828 17.9307 16.2484 17.665C16.5141 17.3993 16.8744 17.2501 17.2502 17.2501H35.8085C35.715 17.7077 35.6668 18.1822 35.6668 18.6667C35.6645 20.3498 36.2639 21.9783 37.3569 23.2582L30.0866 29.551L21.0001 21.8372L19.1669 23.9962L30.1036 33.2825L39.6377 25.0318ZM42.7502 22.9167C42.192 22.9167 41.6394 22.8068 41.1238 22.5932C40.6081 22.3797 40.1396 22.0666 39.745 21.672C39.3503 21.2773 39.0373 20.8088 38.8237 20.2932C38.6101 19.7775 38.5002 19.2249 38.5002 18.6667C38.5002 18.1086 38.6101 17.556 38.8237 17.0403C39.0373 16.5247 39.3503 16.0562 39.745 15.6615C40.1396 15.2669 40.6081 14.9538 41.1238 14.7403C41.6394 14.5267 42.192 14.4167 42.7502 14.4167C43.8773 14.4167 44.9583 14.8645 45.7554 15.6615C46.5524 16.4586 47.0002 17.5396 47.0002 18.6667C47.0002 19.7939 46.5524 20.8749 45.7554 21.672C44.9583 22.469 43.8773 22.9167 42.7502 22.9167Z" fill="white"/>
</g>
<defs>
<clipPath id="clip0_390_1022">
<rect width="34" height="34" fill="white" transform="translate(13 13)"/>
</clipPath>
</defs>
</svg>
