<svg width="19" height="19" viewBox="0 0 19 19" fill="none" xmlns="http://www.w3.org/2000/svg">
<path d="M4.25 2H14.75C14.9489 2 15.1397 2.07902 15.2803 2.21967C15.421 2.36032 15.5 2.55109 15.5 2.75V17.1073C15.5001 17.1743 15.4822 17.2402 15.4482 17.2979C15.4142 17.3557 15.3653 17.4033 15.3066 17.4358C15.2479 17.4683 15.1816 17.4844 15.1146 17.4826C15.0476 17.4807 14.9823 17.4609 14.9255 17.4252L9.5 14.0225L4.0745 17.4245C4.01778 17.4601 3.95254 17.4799 3.88558 17.4818C3.81861 17.4837 3.75236 17.4676 3.69372 17.4352C3.63508 17.4029 3.58618 17.3554 3.55211 17.2977C3.51804 17.24 3.50005 17.1742 3.5 17.1073V2.75C3.5 2.55109 3.57902 2.36032 3.71967 2.21967C3.86032 2.07902 4.05109 2 4.25 2ZM14 3.5H5V15.074L9.5 12.2533L14 15.074V3.5Z" fill="white"/>
</svg>
